<svg width="19" height="19" viewBox="0 0 19 19" fill="none" xmlns="http://www.w3.org/2000/svg">
<path d="M9.5 17.8125C7.85595 17.8125 6.24881 17.325 4.88183 16.4116C3.51484 15.4982 2.44941 14.2 1.82026 12.6811C1.1911 11.1621 1.02649 9.49078 1.34723 7.87832C1.66797 6.26585 2.45965 4.7847 3.62218 3.62218C4.7847 2.45965 6.26585 1.66797 7.87832 1.34723C9.49078 1.02649 11.1621 1.1911 12.6811 1.82026C14.2 2.44941 15.4982 3.51484 16.4116 4.88183C17.325 6.24881 17.8125 7.85595 17.8125 9.5C17.8125 11.7046 16.9367 13.8189 15.3778 15.3778C13.8189 16.9367 11.7046 17.8125 9.5 17.8125ZM9.5 2.375C8.09081 2.375 6.71327 2.79288 5.54157 3.57578C4.36987 4.35869 3.45664 5.47146 2.91736 6.77338C2.37809 8.07531 2.23699 9.50791 2.51191 10.89C2.78683 12.2721 3.46542 13.5417 4.46187 14.5381C5.45832 15.5346 6.72787 16.2132 8.10999 16.4881C9.4921 16.763 10.9247 16.6219 12.2266 16.0826C13.5285 15.5434 14.6413 14.6301 15.4242 13.4584C16.2071 12.2867 16.625 10.9092 16.625 9.5C16.625 7.61034 15.8743 5.79806 14.5381 4.46187C13.2019 3.12567 11.3897 2.375 9.5 2.375Z" fill="#FDFDFD"/>
<path d="M12.2253 13.0625L8.90625 9.74344V4.15625H10.0938V9.25063L13.0625 12.2253L12.2253 13.0625Z" fill="#FDFDFD"/>
</svg>
