<svg width="12" height="12" viewBox="0 0 12 12" fill="none" xmlns="http://www.w3.org/2000/svg">
<path d="M6.67937 4.3133L5.8877 5.10498L8.3094 7.52668L9.10107 6.735L6.67937 4.3133Z" fill="#878686"/>
<path d="M9.76371 6.88051C9.73304 6.84967 9.69658 6.8252 9.65642 6.8085C9.61627 6.7918 9.5732 6.7832 9.52971 6.7832C9.48622 6.7832 9.44315 6.7918 9.403 6.8085C9.36284 6.8252 9.32638 6.84967 9.29571 6.88051L8.45571 7.72051C8.42487 7.75118 8.4004 7.78764 8.3837 7.8278C8.367 7.86796 8.3584 7.91102 8.3584 7.95452C8.3584 7.99801 8.367 8.04107 8.3837 8.08123C8.4004 8.12139 8.42487 8.15785 8.45571 8.18852L9.99531 9.72812C10.0573 9.79025 10.1415 9.82521 10.2293 9.82532C10.2738 9.82634 10.3181 9.81825 10.3594 9.80153C10.4006 9.78482 10.4381 9.75983 10.4693 9.72812L11.3093 8.88812C11.3401 8.85745 11.3646 8.82099 11.3813 8.78083C11.398 8.74067 11.4066 8.69761 11.4066 8.65412C11.4066 8.61062 11.398 8.56756 11.3813 8.5274C11.3646 8.48724 11.3401 8.45078 11.3093 8.42012L9.76371 6.88051Z" fill="#878686"/>
<path d="M7.20852 3.3459L5.60172 1.7391C5.58517 1.72278 5.56955 1.70555 5.55492 1.6875L3.26172 3.9795C3.27972 3.9951 3.29772 4.0107 3.31452 4.0275L4.92012 5.6331C4.93692 5.6499 4.95252 5.6679 4.96812 5.6859L7.26132 3.3927C7.24287 3.37808 7.22524 3.36246 7.20852 3.3459Z" fill="#878686"/>
<path d="M7.37733 3.17476C7.43005 3.22756 7.49264 3.26945 7.56154 3.29805C7.63045 3.32665 7.70431 3.3414 7.77891 3.34145C7.85351 3.34151 7.9274 3.32687 7.99634 3.29837C8.06529 3.26988 8.12794 3.22808 8.18074 3.17536C8.23353 3.12265 8.27542 3.06006 8.30402 2.99115C8.33262 2.92225 8.34737 2.84839 8.34742 2.77379C8.34748 2.69919 8.33284 2.6253 8.30434 2.55636C8.27585 2.48741 8.23405 2.42476 8.18133 2.37196L6.57453 0.766363C6.46808 0.659905 6.32369 0.600098 6.17313 0.600098C6.02258 0.600098 5.87819 0.659905 5.77173 0.766363C5.66528 0.872821 5.60547 1.01721 5.60547 1.16776C5.60547 1.31832 5.66528 1.46271 5.77173 1.56916L7.37733 3.17476Z" fill="#878686"/>
<path d="M3.14429 4.19978C3.03768 4.09332 2.89314 4.03358 2.74247 4.03369C2.5918 4.0338 2.44735 4.09376 2.34089 4.20038C2.23444 4.307 2.17469 4.45154 2.1748 4.6022C2.17492 4.75287 2.23488 4.89732 2.34149 5.00378L3.94829 6.60578C4.00092 6.65864 4.06347 6.70059 4.13236 6.72921C4.20124 6.75784 4.2751 6.77257 4.34969 6.77257C4.42429 6.77257 4.49815 6.75784 4.56703 6.72921C4.63591 6.70059 4.69847 6.65864 4.75109 6.60578C4.80381 6.55307 4.84564 6.49049 4.87417 6.42162C4.9027 6.35275 4.91739 6.27893 4.91739 6.20438C4.91739 6.12983 4.9027 6.05601 4.87417 5.98714C4.84564 5.91827 4.80381 5.85569 4.75109 5.80298L3.14429 4.19978Z" fill="#878686"/>
<path d="M7.05297 10.0589C7.10528 10.0594 7.15745 10.0642 7.20897 10.0733V9.90527C7.20897 9.7177 7.13454 9.5378 7.00203 9.40506C6.86951 9.27232 6.68973 9.19758 6.50217 9.19727H1.85817C1.6706 9.19758 1.49083 9.27232 1.35831 9.40506C1.22579 9.5378 1.15137 9.7177 1.15137 9.90527V10.0733C1.20289 10.0642 1.25506 10.0594 1.30737 10.0589H7.05297Z" fill="#878686"/>
<path d="M7.75979 11.0051C7.75979 10.8177 7.68532 10.6379 7.55277 10.5054C7.42022 10.3728 7.24044 10.2983 7.05299 10.2983H1.30739C1.11993 10.2983 0.940154 10.3728 0.807603 10.5054C0.675052 10.6379 0.600586 10.8177 0.600586 11.0051V11.3999H7.75979V11.0051Z" fill="#878686"/>
</svg>
