<svg width="14" height="14" viewBox="0 0 14 14" fill="none" xmlns="http://www.w3.org/2000/svg">
<path d="M13.3749 6.79727C11.001 3.45561 7.16813 3.34585 6.99299 3.34277C6.83101 3.34571 2.99809 3.45561 0.62425 6.79727C0.53801 6.91865 0.53801 7.08133 0.62425 7.20271C2.99809 10.5442 6.83101 10.654 6.99299 10.6572C6.99523 10.6572 6.99733 10.6572 6.99957 10.6572C7.00181 10.6572 7.00391 10.6572 7.00615 10.6572C7.16813 10.6541 11.001 10.5442 13.3749 7.20271C13.4611 7.08133 13.4611 6.91865 13.3749 6.79727ZM6.99929 9.95707C6.82387 9.95119 3.48067 9.79747 1.34427 6.99999C3.52113 4.15071 6.97087 4.04347 6.99299 4.04263C7.02841 4.04333 10.4717 4.14119 12.655 6.99999C10.5235 9.78963 7.17163 9.95077 6.99929 9.95707Z" fill="#878686"/>
<path d="M7.00044 4.52295C5.6157 4.52295 4.48926 5.63427 4.48926 7.00011C4.48926 8.36609 5.6157 9.47727 7.00044 9.47727C8.38517 9.47727 9.51161 8.36609 9.51161 7.00011C9.51161 5.63427 8.38517 4.52295 7.00044 4.52295ZM7.00044 8.77727C6.00182 8.77727 5.18926 7.98011 5.18926 7.00011C5.18926 6.02011 6.00182 5.22295 7.00044 5.22295C7.99906 5.22295 8.81161 6.02011 8.81161 7.00011C8.81161 7.98011 7.99906 8.77727 7.00044 8.77727Z" fill="#878686"/>
</svg>
