<svg width="21" height="21" viewBox="0 0 21 21" fill="none" xmlns="http://www.w3.org/2000/svg">
<path d="M11.6901 7.54767L10.3047 8.93311L14.5427 13.1711L15.9281 11.7856L11.6901 7.54767Z" fill="white"/>
<path d="M17.0862 12.0409C17.0326 11.9869 16.9688 11.9441 16.8985 11.9149C16.8282 11.8857 16.7529 11.8706 16.6767 11.8706C16.6006 11.8706 16.5253 11.8857 16.455 11.9149C16.3847 11.9441 16.3209 11.9869 16.2672 12.0409L14.7972 13.5109C14.7433 13.5646 14.7004 13.6284 14.6712 13.6987C14.642 13.7689 14.627 13.8443 14.627 13.9204C14.627 13.9965 14.642 14.0719 14.6712 14.1422C14.7004 14.2124 14.7433 14.2762 14.7972 14.3299L17.4915 17.0242C17.6001 17.1329 17.7474 17.1941 17.901 17.1943C17.979 17.1961 18.0564 17.1819 18.1286 17.1527C18.2009 17.1234 18.2663 17.0797 18.321 17.0242L19.791 15.5542C19.845 15.5005 19.8878 15.4367 19.9171 15.3665C19.9463 15.2962 19.9613 15.2208 19.9613 15.1447C19.9613 15.0686 19.9463 14.9932 19.9171 14.923C19.8878 14.8527 19.845 14.7889 19.791 14.7352L17.0862 12.0409Z" fill="white"/>
<path d="M12.6149 5.85532L9.803 3.04342C9.77405 3.01487 9.74671 2.98472 9.7211 2.95312L5.70801 6.96412C5.73951 6.99143 5.77101 7.01873 5.80041 7.04813L8.6102 9.85792C8.6396 9.88732 8.6669 9.91883 8.69421 9.95033L12.7073 5.93723C12.675 5.91164 12.6442 5.8843 12.6149 5.85532Z" fill="white"/>
<path d="M12.9103 5.55645C13.0026 5.64883 13.1121 5.72214 13.2327 5.77219C13.3533 5.82225 13.4825 5.84806 13.6131 5.84815C13.7436 5.84825 13.8729 5.82263 13.9936 5.77276C14.1143 5.72289 14.2239 5.64974 14.3163 5.5575C14.4087 5.46525 14.482 5.35571 14.532 5.23513C14.5821 5.11455 14.6079 4.98529 14.608 4.85474C14.6081 4.72418 14.5825 4.59489 14.5326 4.47424C14.4827 4.35358 14.4096 4.24393 14.3173 4.15155L11.5054 1.34175C11.3191 1.15544 11.0665 1.05078 10.803 1.05078C10.5395 1.05078 10.2868 1.15544 10.1005 1.34175C9.91423 1.52805 9.80957 1.78073 9.80957 2.0442C9.80957 2.30767 9.91423 2.56034 10.1005 2.74665L12.9103 5.55645Z" fill="white"/>
<path d="M5.50129 7.34925C5.31471 7.16295 5.06177 7.0584 4.7981 7.05859C4.53444 7.05879 4.28165 7.16372 4.09534 7.3503C3.90904 7.53688 3.80449 7.78983 3.80469 8.05349C3.80488 8.31716 3.90981 8.56995 4.09639 8.75625L6.90829 11.5597C7.00039 11.6523 7.10986 11.7257 7.2304 11.7758C7.35095 11.8258 7.4802 11.8516 7.61074 11.8516C7.74128 11.8516 7.87054 11.8258 7.99108 11.7758C8.11163 11.7257 8.2211 11.6523 8.31319 11.5597C8.40545 11.4675 8.47864 11.358 8.52857 11.2375C8.57851 11.1169 8.60421 10.9878 8.60421 10.8573C8.60421 10.7268 8.57851 10.5977 8.52857 10.4771C8.47864 10.3566 8.40545 10.2471 8.31319 10.1548L5.50129 7.34925Z" fill="white"/>
<path d="M12.3415 17.603C12.433 17.604 12.5243 17.6124 12.6145 17.6282V17.3342C12.6145 17.006 12.4842 16.6911 12.2523 16.4589C12.0204 16.2266 11.7058 16.0958 11.3776 16.0952H3.25057C2.92233 16.0958 2.60773 16.2266 2.37582 16.4589C2.14392 16.6911 2.01367 17.006 2.01367 17.3342V17.6282C2.10383 17.6124 2.19514 17.604 2.28667 17.603H12.3415Z" fill="white"/>
<path d="M13.5784 19.2584C13.5784 18.9303 13.4481 18.6157 13.2161 18.3838C12.9842 18.1518 12.6696 18.0215 12.3415 18.0215H2.2867C1.95866 18.0215 1.64405 18.1518 1.41208 18.3838C1.18012 18.6157 1.0498 18.9303 1.0498 19.2584V19.9493H13.5784V19.2584Z" fill="white"/>
</svg>
