<svg width="25" height="24" viewBox="0 0 25 24" fill="none" xmlns="http://www.w3.org/2000/svg">
<path d="M15.1313 6.65692C15.1313 4.95388 13.7419 3.56836 12.0339 3.56836C10.3254 3.56836 8.93555 4.95388 8.93555 6.65692C8.93555 8.36116 10.3254 9.74764 12.0339 9.74764C13.7419 9.74764 15.1313 8.36116 15.1313 6.65692ZM9.29655 6.65692C9.29655 5.15236 10.5247 3.92836 12.0339 3.92836C13.5426 3.92836 14.7703 5.15236 14.7703 6.65692C14.7703 8.16268 13.5426 9.38764 12.0339 9.38764C10.5247 9.38764 9.29655 8.16268 9.29655 6.65692Z" fill="#878686"/>
<path d="M15.4624 14.5333C16.6186 12.3454 17.5529 9.94469 17.775 7.57013C17.9837 5.34173 17.5875 3.61997 16.5982 2.45261C15.6461 1.32941 14.1573 0.707571 12.0469 0.550851C12.0419 0.550371 12.0375 0.552531 12.0329 0.552531C12.0284 0.552531 12.0245 0.550611 12.0202 0.550851C9.9093 0.707331 8.4203 1.32965 7.46798 2.45285C6.47836 3.62021 6.08246 5.34197 6.29088 7.57013C6.51301 9.94325 7.44776 12.344 8.60465 14.533C6.77679 15.428 5.68945 16.9383 5.68945 18.6063C5.68945 21.2765 8.5351 23.449 12.0329 23.449C15.5308 23.449 18.3764 21.2765 18.3764 18.6063C18.3764 16.939 17.2896 15.4287 15.4624 14.5333ZM7.74378 2.68541C8.62823 1.64213 10.0316 1.06181 12.0337 0.911091C14.0353 1.06157 15.4384 1.64189 16.3226 2.68517C17.2472 3.77573 17.615 5.40821 17.4157 7.53653C17.0121 11.8484 14.1927 16.2795 12.0337 19.3049C9.87392 16.2776 7.05355 11.8445 6.65019 7.53653C6.45116 5.40821 6.81914 3.77597 7.74378 2.68541ZM12.0329 23.089C8.73413 23.089 6.05045 21.0781 6.05045 18.6063C6.05045 17.0761 7.06703 15.6826 8.77504 14.8503C9.76948 16.6813 10.9049 18.3531 11.8869 19.7199C11.8907 19.7252 11.897 19.7271 11.9011 19.7321C11.91 19.7422 11.9172 19.7533 11.9285 19.7614C11.9336 19.7653 11.9398 19.7665 11.9451 19.7698C11.9509 19.7732 11.9562 19.7756 11.9622 19.7782C11.9853 19.7883 12.0091 19.795 12.0334 19.795C12.0577 19.795 12.0816 19.7883 12.1047 19.7782C12.1107 19.7756 12.1162 19.7729 12.122 19.7696C12.1273 19.7665 12.1333 19.765 12.1384 19.7614C12.1497 19.7535 12.1569 19.7422 12.1658 19.7324C12.1701 19.7273 12.1761 19.7254 12.1802 19.7199C13.1622 18.3536 14.2976 16.682 15.2921 14.8505C16.9996 15.6838 18.0154 17.0768 18.0154 18.6063C18.0154 21.0781 15.3318 23.089 12.0329 23.089Z" fill="#878686"/>
</svg>
